<?xml version="1.0" encoding="UTF-8" standalone="no"?>
<!-- Created with Inkscape (http://www.inkscape.org/) -->

<svg
   xmlns:dc="http://purl.org/dc/elements/1.1/"
   xmlns:cc="http://creativecommons.org/ns#"
   xmlns:rdf="http://www.w3.org/1999/02/22-rdf-syntax-ns#"
   xmlns:svg="http://www.w3.org/2000/svg"
   xmlns="http://www.w3.org/2000/svg"
   xmlns:sodipodi="http://sodipodi.sourceforge.net/DTD/sodipodi-0.dtd"
   xmlns:inkscape="http://www.inkscape.org/namespaces/inkscape"
   width="79.828575mm"
   height="79.828575mm"
   viewBox="0 0 282.85716 282.85715"
   id="svg2"
   version="1.1"
   inkscape:version="0.91 r13725"
   sodipodi:docname="logo.svg">
  <defs
     id="defs4" />
  <sodipodi:namedview
     id="base"
     pagecolor="#ffffff"
     bordercolor="#666666"
     borderopacity="1.0"
     inkscape:pageopacity="0.0"
     inkscape:pageshadow="2"
     inkscape:zoom="0.50911688"
     inkscape:cx="73.09447"
     inkscape:cy="149.00078"
     inkscape:document-units="px"
     inkscape:current-layer="layer1"
     showgrid="false"
     fit-margin-top="0"
     fit-margin-left="0"
     fit-margin-right="0"
     fit-margin-bottom="0"
     inkscape:window-width="1680"
     inkscape:window-height="981"
     inkscape:window-x="13"
     inkscape:window-y="11"
     inkscape:window-maximized="0" />
  <metadata
     id="metadata7">
    <rdf:RDF>
      <cc:Work
         rdf:about="">
        <dc:format>image/svg+xml</dc:format>
        <dc:type
           rdf:resource="http://purl.org/dc/dcmitype/StillImage" />
        <dc:title></dc:title>
      </cc:Work>
    </rdf:RDF>
  </metadata>
  <g
     inkscape:label="Layer 1"
     inkscape:groupmode="layer"
     id="layer1"
     transform="translate(-230,-308.07648)">
    <rect
       style="fill:#232528;fill-opacity:1;stroke:#da6337;stroke-width:20;stroke-linecap:butt;stroke-linejoin:round;stroke-miterlimit:4;stroke-dasharray:none;stroke-opacity:1"
       id="rect4136"
       width="262.85715"
       height="262.85715"
       x="240"
       y="318.07648"
       ry="34.351101" />
    <g
       style="font-style:normal;font-variant:normal;font-weight:bold;font-stretch:normal;font-size:375px;line-height:125%;font-family:'Tamil Sangam MN';-inkscape-font-specification:'Tamil Sangam MN Bold';letter-spacing:0px;word-spacing:0px;fill:#000000;fill-opacity:1;stroke:none;stroke-width:1px;stroke-linecap:butt;stroke-linejoin:miter;stroke-opacity:1"
       id="text4177"
       transform="translate(-23.499976,-17.547624)">
      <path
         d="m 451.69126,411.85502 c -8.05666,-7.28201 -16.47953,-12.47652 -25.2686,-15.58351 -8.91112,-3.20409 -18.00535,-4.80613 -27.2827,-4.80613 -9.52148,0 -18.0664,1.11658 -25.63476,3.34973 -7.56836,2.23314 -13.91601,5.43723 -19.04297,9.61225 -5.24902,4.07793 -9.27734,9.0297 -12.08496,14.8553 -2.80762,5.72852 -4.21143,12.1367 -4.21143,19.22453 l 0,104.13278 43.21289,0 0,-98.59846 c 0,-3.78665 0.67139,-7.13637 2.01416,-10.04917 1.34278,-2.91281 3.17383,-5.3887 5.49317,-7.42766 2.31934,-2.03896 5.06592,-3.54391 8.23974,-4.51485 3.17384,-1.06802 6.53077,-1.60204 10.0708,-1.60204 5.73731,0 11.29151,0.97093 16.6626,2.91281 5.37111,1.84477 10.13186,4.3692 14.28226,7.57329 4.02827,3.10699 10.44917,7.44244 13.0127,11.61746 z"
         id="path4182"
         inkscape:connector-curvature="0"
         sodipodi:nodetypes="ccssccsccssscscccc"
         style="fill:#da6337;fill-opacity:1" />
    </g>
  </g>
</svg>
